[IMG]http://i.imgur.com/OyPgS.jpg[/IMG]
[code]
Chronicle 2012 TS V2 READNFO XViD AC3-26K

Imdb: 
http://www.imdb.com/title/tt1706593/

Plot:
Three high school friends gain superpowers after making an incredible discovery. Soon, though, they find their lives spinning out of control and their bond tested as they embrace their darker sides.
Sources:
VIDEO-NoZGT the NEW SOURCE :p
AUDIO-MiSTERE THNXS BRO!

Notes:
AUDIO IS FULL LINE!!! THAT IS ALL :p :) ENJOY...!
encoded the video and added a few filters to it to make it look nice :P
so take it or leave it :)

Greetz:
Xtreme Encode|FYA|ILLUMANTI|CM8|RX|VISION|HDSCENE|NIGHTMAREZ|xTriLL|DTRG|CRYS|REMIXHD|BIDA|RX|REFILL|INSPiRAL|SIC|ZOMBIESZ|HOPE|Anonymous|GooN
To all the people who have helped me :P you know who you are

Anything to offer email us @: 26k@hushmail.me

Video
ID                                       : 0
Format                                   : MPEG-4 Visual
Format profile                           : Advanced Simple@L5
Format settings, BVOP                    : 2
Format settings, QPel                    : No
Format settings, GMC                     : No warppoints
Format settings, Matrix                  : Default (H.263)
Codec ID                                 : XVID
Codec ID/Hint                            : XviD
Duration                                 : 1h 15mn
Bit rate                                 : 1 393 Kbps
Width                                    : 720 pixels
Height                                   : 288 pixels
Display aspect ratio                     : 2.500
Frame rate                               : 25.000 fps
Color space                              : YUV
Chroma subsampling                       : 4:2:0
Bit depth                                : 8 bits
Scan type                                : Progressive
Compression mode                         : Lossy
Bits/(Pixel*Frame)                       : 0.269
Stream size                              : 755 MiB (86%)
Writing library                          : XviD 64

Audio
ID                                       : 1
Format                                   : AC-3
Format/Info                              : Audio Coding 3
Mode extension                           : CM (complete main)
Codec ID                                 : 2000
Duration                                 : 1h 15mn
Source duration                          : 1h 15mn
Bit rate mode                            : Constant
Bit rate                                 : 224 Kbps
Channel(s)                               : 2 channels
Channel positions                        : Front: L R
Sampling rate                            : 44.1 KHz
Bit depth                                : 16 bits
Compression mode                         : Lossy
Stream size                              : 121 MiB (14%)
Alignment                                : Aligned on interleaves
Interleave, duration                     : 35 ms (0.87 video frame)

[/code]
Screens:
[IMG]http://i.imgur.com/1foKv.png[/IMG]
[IMG]http://i.imgur.com/dNYu1.png[/IMG]
[IMG]http://i.imgur.com/exW5Y.png[/IMG]
[IMG]http://i.imgur.com/zO2Iz.png[/IMG]
[IMG]http://i.imgur.com/bVPve.png[/IMG]

[img]http://img851.imageshack.us/img851/5503/26ks.jpg[/img]
Thank you smallz for banner!